<svg width="23" height="25" viewBox="0 0 23 25" fill="none" xmlns="http://www.w3.org/2000/svg">
<g clip-path="url(#clip0_143_365)">
<path d="M23 11.5V13.5C23 14.0521 22.8307 14.5234 22.4922 14.9141C22.1536 15.3047 21.7135 15.5 21.1719 15.5H10.1719L14.75 20.0938C15.1458 20.4688 15.3438 20.9375 15.3438 21.5C15.3438 22.0625 15.1458 22.5312 14.75 22.9062L13.5781 24.0938C13.1927 24.4792 12.724 24.6719 12.1719 24.6719C11.6302 24.6719 11.1562 24.4792 10.75 24.0938L0.578125 13.9062C0.192708 13.5208 0 13.0521 0 12.5C0 11.9583 0.192708 11.4844 0.578125 11.0781L10.75 0.921875C11.1458 0.526042 11.6198 0.328125 12.1719 0.328125C12.7135 0.328125 13.1823 0.526042 13.5781 0.921875L14.75 2.07812C15.1458 2.47396 15.3438 2.94792 15.3438 3.5C15.3438 4.05208 15.1458 4.52604 14.75 4.92188L10.1719 9.5H21.1719C21.7135 9.5 22.1536 9.69531 22.4922 10.0859C22.8307 10.4766 23 10.9479 23 11.5Z" fill="#FAFAFA"/>
</g>
<defs>
<clipPath id="clip0_143_365">
<rect width="23" height="25" fill="white"/>
</clipPath>
</defs>
</svg>
