<svg width="21" height="20" viewBox="0 0 21 20" fill="none" xmlns="http://www.w3.org/2000/svg">
<path d="M8.73709 1.3175C8.81981 1.3585 8.89241 1.41732 8.94969 1.48972C9.00696 1.56213 9.04748 1.64632 9.06834 1.73625C9.09084 1.835 9.70834 4.4775 9.70834 6.25C9.70834 7.4375 9.15584 8.49625 8.29584 9.1825C7.98334 9.4325 7.83334 9.705 7.83334 9.9325V10.54C7.83334 10.5692 7.83501 10.5967 7.83834 10.6225C7.88084 10.9325 8.03459 12.0838 8.17834 13.2775C8.31959 14.4488 8.45834 15.7263 8.45834 16.25C8.45834 16.913 8.19495 17.5489 7.72611 18.0178C7.25727 18.4866 6.62138 18.75 5.95834 18.75C5.2953 18.75 4.65942 18.4866 4.19058 18.0178C3.72174 17.5489 3.45834 16.913 3.45834 16.25C3.45834 15.725 3.59709 14.45 3.73834 13.2775C3.88209 12.0838 4.03584 10.9325 4.07834 10.6225L4.08334 10.54V9.9325C4.08334 9.705 3.93334 9.4325 3.62084 9.1825C3.1802 8.83124 2.82438 8.38519 2.57984 7.87749C2.3353 7.3698 2.20832 6.81352 2.20834 6.25C2.20834 4.48375 2.82084 1.855 2.84834 1.7375C2.88084 1.59855 2.95946 1.47471 3.07137 1.38618C3.18328 1.29765 3.32189 1.24964 3.46459 1.25C3.81459 1.25 4.09834 1.53375 4.09834 1.88375V5.63125C4.09342 5.71566 4.10584 5.80019 4.13485 5.87961C4.16387 5.95904 4.20885 6.03167 4.26703 6.09303C4.3252 6.15439 4.39534 6.20318 4.47311 6.23638C4.55087 6.26958 4.63462 6.28648 4.71917 6.28605C4.80373 6.28563 4.8873 6.26787 4.96472 6.23389C5.04215 6.1999 5.11179 6.15041 5.16934 6.08847C5.2269 6.02652 5.27114 5.95343 5.29935 5.87372C5.32756 5.79401 5.33913 5.70936 5.33334 5.625V1.875C5.33334 1.70924 5.39919 1.55027 5.5164 1.43306C5.63361 1.31585 5.79258 1.25 5.95834 1.25C6.1241 1.25 6.28307 1.31585 6.40029 1.43306C6.5175 1.55027 6.58334 1.70924 6.58334 1.875V5.6575C6.58682 5.8216 6.65535 5.9776 6.77385 6.09118C6.89235 6.20476 7.05112 6.26661 7.21522 6.26313C7.37932 6.25965 7.53532 6.19112 7.6489 6.07262C7.76247 5.95412 7.82432 5.79535 7.82084 5.63125V1.88125C7.82084 1.5325 8.10334 1.25 8.45334 1.25C8.48084 1.25 8.60334 1.25 8.73709 1.3175ZM11.5833 6.875C11.5833 5.38316 12.176 3.95242 13.2309 2.89753C14.2858 1.84263 15.7165 1.25 17.2083 1.25C17.3741 1.25 17.5331 1.31585 17.6503 1.43306C17.7675 1.55027 17.8333 1.70924 17.8333 1.875V9.34125L17.8571 9.5625C17.9565 10.4954 18.0519 11.4288 18.1433 12.3625C18.2971 13.9325 18.4583 15.6925 18.4583 16.25C18.4583 16.913 18.195 17.5489 17.7261 18.0178C17.2573 18.4866 16.6214 18.75 15.9583 18.75C15.2953 18.75 14.6594 18.4866 14.1906 18.0178C13.7217 17.5489 13.4583 16.913 13.4583 16.25C13.4583 15.6925 13.6196 13.9325 13.7733 12.3625C13.8521 11.5663 13.9308 10.8038 13.9896 10.2388L14.0146 10H12.8333C12.5018 10 12.1839 9.86831 11.9495 9.63389C11.715 9.39946 11.5833 9.08152 11.5833 8.75V6.875Z" fill="#FAFAFA"/>
</svg>
