<svg width="50" height="51" viewBox="0 0 50 51" fill="none" xmlns="http://www.w3.org/2000/svg">
<path fill-rule="evenodd" clip-rule="evenodd" d="M25 45.7285C30.3043 45.7285 35.3914 43.6214 39.1421 39.8707C42.8929 36.1199 45 31.0328 45 25.7285C45 20.4242 42.8929 15.3371 39.1421 11.5864C35.3914 7.83565 30.3043 5.72852 25 5.72852C19.6957 5.72852 14.6086 7.83565 10.8579 11.5864C7.10714 15.3371 5 20.4242 5 25.7285C5 31.0328 7.10714 36.1199 10.8579 39.8707C14.6086 43.6214 19.6957 45.7285 25 45.7285ZM23.8875 18.6485C23.511 18.3973 23.0734 18.253 22.6213 18.2311C22.1692 18.2091 21.7197 18.3103 21.3206 18.5238C20.9215 18.7374 20.5879 19.0552 20.3553 19.4435C20.1227 19.8318 19.9999 20.2759 20 20.7285V30.7285C19.9999 31.1811 20.1227 31.6253 20.3553 32.0135C20.5879 32.4018 20.9215 32.7197 21.3206 32.9332C21.7197 33.1467 22.1692 33.2479 22.6213 33.2259C23.0734 33.204 23.511 33.0597 23.8875 32.8085L31.3875 27.8085C31.7299 27.5802 32.0106 27.2709 32.2048 26.9081C32.399 26.5452 32.5006 26.14 32.5006 25.7285C32.5006 25.317 32.399 24.9118 32.2048 24.549C32.0106 24.1861 31.7299 23.8768 31.3875 23.6485L23.8875 18.6485Z" fill="#323E36"/>
</svg>
