<svg xmlns="http://www.w3.org/2000/svg" width="23" height="26" fill="none">
  <g clip-path="url(#a)">
    <path fill="#323E36" d="M23 12v2c0 .5521-.1693 1.0234-.5078 1.4141-.3386.3906-.7787.5859-1.3203.5859h-11l4.5781 4.5938c.3958.375.5938.8437.5938 1.4062 0 .5625-.198 1.0312-.5938 1.4062l-1.1719 1.1876c-.3854.3854-.8541.5781-1.4062.5781-.5417 0-1.0157-.1927-1.4219-.5781L.578125 14.4062C.192708 14.0208 0 13.5521 0 13c0-.5417.192708-1.0156.578125-1.4219L10.75 1.42188c.3958-.39584.8698-.593755 1.4219-.593755.5416 0 1.0104.197915 1.4062.593755L14.75 2.57812c.3958.39584.5938.8698.5938 1.42188s-.198 1.02604-.5938 1.42188L10.1719 10h11c.5416 0 .9817.1953 1.3203.5859.3385.3907.5078.862.5078 1.4141Z"/>
  </g>
  <defs>
    <clipPath id="a">
      <path fill="#fff" d="M0 .5h23v25H0z"/>
    </clipPath>
  </defs>
</svg>