<svg width="20" height="14" viewBox="0 0 20 14" fill="none" xmlns="http://www.w3.org/2000/svg">
<g clip-path="url(#clip0_143_348)">
<path fill-rule="evenodd" clip-rule="evenodd" d="M10.1265 7.10655L13.7498 10.7298C13.9421 10.9221 14.2028 11.0301 14.4747 11.0301C14.7466 11.0301 15.0074 10.9221 15.1997 10.7298C15.3919 10.5376 15.4999 10.2768 15.4999 10.0049C15.4999 9.733 15.3919 9.47224 15.1997 9.27997L11.575 5.65669L15.199 2.0334C15.2941 1.9382 15.3696 1.82519 15.4211 1.70083C15.4726 1.57646 15.4991 1.44317 15.499 1.30857C15.499 1.17397 15.4725 1.04069 15.4209 0.916351C15.3694 0.792009 15.2938 0.679035 15.1986 0.583881C15.1034 0.488726 14.9904 0.413255 14.8661 0.361775C14.7417 0.310295 14.6084 0.283815 14.4738 0.283846C14.3392 0.283878 14.2059 0.310421 14.0816 0.361959C13.9573 0.413498 13.8443 0.489023 13.7491 0.584223L10.1265 4.20751L6.50324 0.584223C6.40874 0.486293 6.29569 0.408163 6.17067 0.354392C6.04566 0.300621 5.91119 0.272285 5.77511 0.271039C5.63903 0.269793 5.50406 0.295661 5.37808 0.347133C5.2521 0.398605 5.13764 0.474652 5.04137 0.570834C4.94509 0.667017 4.86894 0.781411 4.81735 0.90734C4.76576 1.03327 4.73976 1.16821 4.74088 1.30429C4.742 1.44038 4.77021 1.57487 4.82386 1.69994C4.87751 1.825 4.95553 1.93813 5.05338 2.03272L8.67803 5.65669L5.05406 9.28066C4.95622 9.37525 4.8782 9.48837 4.82454 9.61344C4.77089 9.7385 4.74268 9.873 4.74156 10.0091C4.74044 10.1452 4.76644 10.2801 4.81803 10.406C4.86962 10.532 4.94578 10.6464 5.04205 10.7425C5.13832 10.8387 5.25279 10.9148 5.37877 10.9662C5.50474 11.0177 5.63971 11.0436 5.77579 11.0423C5.91187 11.0411 6.04634 11.0128 6.17136 10.959C6.29637 10.9052 6.40942 10.8271 6.50392 10.7292L10.1265 7.10655Z" fill="#323E36" fill-opacity="0.5"/>
</g>
<defs>
<clipPath id="clip0_143_348">
<rect width="18.7591" height="13.4576" fill="white" transform="translate(0.740845 0.270996)"/>
</clipPath>
</defs>
</svg>
