<svg width="50" height="51" viewBox="0 0 50 51" fill="none" xmlns="http://www.w3.org/2000/svg">
<path d="M24.2188 42.916C24.2188 43.5376 23.9718 44.1338 23.5323 44.5733C23.0927 45.0128 22.4966 45.2598 21.875 45.2598H9.375C8.7534 45.2598 8.15726 45.0128 7.71772 44.5733C7.27818 44.1338 7.03125 43.5376 7.03125 42.916V8.54102C7.03125 7.91941 7.27818 7.32327 7.71772 6.88373C8.15726 6.4442 8.7534 6.19727 9.375 6.19727H21.875C22.4966 6.19727 23.0927 6.4442 23.5323 6.88373C23.9718 7.32327 24.2188 7.91941 24.2188 8.54102C24.2188 9.16262 23.9718 9.75876 23.5323 10.1983C23.0927 10.6378 22.4966 10.8848 21.875 10.8848H11.7188V40.5723H21.875C22.4966 40.5723 23.0927 40.8192 23.5323 41.2587C23.9718 41.6983 24.2188 42.2944 24.2188 42.916ZM45.4082 24.0703L37.5957 16.2578C37.1554 15.8175 36.5582 15.5702 35.9355 15.5702C35.3129 15.5702 34.7157 15.8175 34.2754 16.2578C33.8351 16.6981 33.5877 17.2953 33.5877 17.918C33.5877 18.5406 33.8351 19.1378 34.2754 19.5781L38.0859 23.3848H21.875C21.2534 23.3848 20.6573 23.6317 20.2177 24.0712C19.7782 24.5108 19.5312 25.1069 19.5312 25.7285C19.5312 26.3501 19.7782 26.9463 20.2177 27.3858C20.6573 27.8253 21.2534 28.0723 21.875 28.0723H38.0859L34.2734 31.8828C33.8331 32.3231 33.5858 32.9203 33.5858 33.543C33.5858 34.1656 33.8331 34.7628 34.2734 35.2031C34.7137 35.6434 35.3109 35.8908 35.9336 35.8908C36.5563 35.8908 37.1534 35.6434 37.5938 35.2031L45.4062 27.3906C45.6249 27.173 45.7984 26.9144 45.9169 26.6296C46.0353 26.3447 46.0964 26.0393 46.0966 25.7309C46.0968 25.4224 46.036 25.1169 45.9179 24.832C45.7998 24.547 45.6266 24.2882 45.4082 24.0703Z" fill="#323E36"/>
</svg>
