<svg width="21" height="20" viewBox="0 0 21 20" fill="none" xmlns="http://www.w3.org/2000/svg">
<path d="M3.99994 12.4998C3.30549 12.4998 2.71522 12.2568 2.22911 11.7707C1.74299 11.2846 1.49994 10.6943 1.49994 9.99984C1.49994 9.30539 1.74299 8.71512 2.22911 8.229C2.71522 7.74289 3.30549 7.49984 3.99994 7.49984V5.83317C3.99994 5.37484 4.16327 4.98261 4.48994 4.6565C4.81661 4.33039 5.20883 4.16706 5.66661 4.1665H8.16661C8.16661 3.47206 8.40966 2.88178 8.89577 2.39567C9.38188 1.90956 9.97216 1.6665 10.6666 1.6665C11.3611 1.6665 11.9513 1.90956 12.4374 2.39567C12.9236 2.88178 13.1666 3.47206 13.1666 4.1665H15.6666C16.1249 4.1665 16.5174 4.32984 16.8441 4.6565C17.1708 4.98317 17.3338 5.37539 17.3333 5.83317V7.49984C18.0277 7.49984 18.618 7.74289 19.1041 8.229C19.5902 8.71512 19.8333 9.30539 19.8333 9.99984C19.8333 10.6943 19.5902 11.2846 19.1041 11.7707C18.618 12.2568 18.0277 12.4998 17.3333 12.4998V15.8332C17.3333 16.2915 17.1702 16.684 16.8441 17.0107C16.518 17.3373 16.1255 17.5004 15.6666 17.4998H5.66661C5.20827 17.4998 4.81605 17.3368 4.48994 17.0107C4.16383 16.6846 4.00049 16.2921 3.99994 15.8332V12.4998ZM8.16661 10.8332C8.51383 10.8332 8.80911 10.7118 9.05244 10.469C9.29577 10.2262 9.41716 9.93095 9.41661 9.58317C9.41605 9.23539 9.29466 8.94039 9.05244 8.69817C8.81022 8.45595 8.51494 8.33428 8.16661 8.33317C7.81827 8.33206 7.52327 8.45373 7.28161 8.69817C7.03994 8.94261 6.91827 9.23761 6.91661 9.58317C6.91494 9.92873 7.03661 10.224 7.28161 10.469C7.52661 10.714 7.82161 10.8354 8.16661 10.8332ZM13.1666 10.8332C13.5138 10.8332 13.8091 10.7118 14.0524 10.469C14.2958 10.2262 14.4172 9.93095 14.4166 9.58317C14.4161 9.23539 14.2947 8.94039 14.0524 8.69817C13.8102 8.45595 13.5149 8.33428 13.1666 8.33317C12.8183 8.33206 12.5233 8.45373 12.2816 8.69817C12.0399 8.94261 11.9183 9.23761 11.9166 9.58317C11.9149 9.92873 12.0366 10.224 12.2816 10.469C12.5266 10.714 12.8216 10.8354 13.1666 10.8332ZM7.33327 14.1665H13.9999V12.4998H7.33327V14.1665Z" fill="#FAFAFA"/>
</svg>
