<svg width="16" height="17" viewBox="0 0 16 17" fill="none" xmlns="http://www.w3.org/2000/svg">
<path d="M8.00004 15.3302C11.73 15.3302 14.8303 12.2365 14.8303 8.49996C14.8303 4.76996 11.7232 1.66968 7.99319 1.66968C4.2569 1.66968 1.17004 4.76996 1.17004 8.49996C1.17004 12.2365 4.26347 15.3302 8.00004 15.3302ZM7.99376 9.50453C7.63862 9.50453 7.44462 9.29682 7.4309 8.94168L7.33719 5.63425C7.32376 5.26568 7.6049 5.00482 7.98662 5.00482C8.36176 5.00482 8.64947 5.27253 8.63633 5.64082L8.54233 8.94225C8.5289 9.30368 8.32804 9.50482 7.99347 9.50482M7.99347 11.9691C7.6049 11.9691 7.24319 11.6611 7.24319 11.2457C7.24319 10.8302 7.59833 10.5228 7.99347 10.5228C8.38176 10.5228 8.74319 10.824 8.74319 11.2457C8.74319 11.6677 8.3749 11.9691 7.99347 11.9691Z" fill="#FC6966"/>
</svg>
