<svg width="23" height="40" viewBox="0 0 23 40" fill="none" xmlns="http://www.w3.org/2000/svg">
<g clip-path="url(#clip0_167_913)">
<path d="M23 19V21C23 21.5521 22.8307 22.0234 22.4922 22.4141C22.1536 22.8047 21.7135 23 21.1719 23H10.1719L14.75 27.5938C15.1458 27.9688 15.3438 28.4375 15.3438 29C15.3438 29.5625 15.1458 30.0312 14.75 30.4062L13.5781 31.5938C13.1927 31.9792 12.724 32.1719 12.1719 32.1719C11.6302 32.1719 11.1562 31.9792 10.75 31.5938L0.578125 21.4062C0.192708 21.0208 0 20.5521 0 20C0 19.4583 0.192708 18.9844 0.578125 18.5781L10.75 8.42188C11.1458 8.02604 11.6198 7.82812 12.1719 7.82812C12.7135 7.82812 13.1823 8.02604 13.5781 8.42188L14.75 9.57812C15.1458 9.97396 15.3438 10.4479 15.3438 11C15.3438 11.5521 15.1458 12.026 14.75 12.4219L10.1719 17H21.1719C21.7135 17 22.1536 17.1953 22.4922 17.5859C22.8307 17.9766 23 18.4479 23 19Z" fill="#323E36"/>
</g>
<defs>
<clipPath id="clip0_167_913">
<rect width="23" height="25" fill="white" transform="translate(0 7.5)"/>
</clipPath>
</defs>
</svg>
